# 3ds Max Wavefront OBJ Exporter v0.97b - (c)2007 guruware
# File Created: 26.12.2016 11:53:34

#
# object Cone001
#

v  0.0000 0.0000 -0.0000
v  0.9808 0.0000 -0.1951
v  1.0000 0.0000 -0.0000
v  0.9239 0.0000 -0.3827
v  0.8315 0.0000 -0.5556
v  0.7071 0.0000 -0.7071
v  0.5556 0.0000 -0.8315
v  0.3827 0.0000 -0.9239
v  0.1951 0.0000 -0.9808
v  0.0000 0.0000 -1.0000
v  -0.1951 0.0000 -0.9808
v  -0.3827 0.0000 -0.9239
v  -0.5556 0.0000 -0.8315
v  -0.7071 0.0000 -0.7071
v  -0.8315 0.0000 -0.5556
v  -0.9239 0.0000 -0.3827
v  -0.9808 0.0000 -0.1951
v  -1.0000 0.0000 0.0000
v  -0.9808 0.0000 0.1951
v  -0.9239 0.0000 0.3827
v  -0.8315 0.0000 0.5556
v  -0.7071 0.0000 0.7071
v  -0.5556 0.0000 0.8315
v  -0.3827 0.0000 0.9239
v  -0.1951 0.0000 0.9808
v  0.0000 0.0000 1.0000
v  0.1951 0.0000 0.9808
v  0.3827 0.0000 0.9239
v  0.5556 0.0000 0.8315
v  0.7071 0.0000 0.7071
v  0.8315 0.0000 0.5556
v  0.9239 0.0000 0.3827
v  0.9808 0.0000 0.1951
v  0.0000 1.0000 -0.0000
# 34 vertices

vn 0.0000 -1.0000 -0.0000
vn 0.7071 0.7071 -0.0000
vn 0.7054 0.7054 -0.0695
vn 0.7054 0.7054 0.0695
vn 0.6935 0.7071 -0.1379
vn 0.6783 0.7054 -0.2058
vn 0.6533 0.7071 -0.2706
vn 0.6251 0.7054 -0.3341
vn 0.5879 0.7071 -0.3928
vn 0.5479 0.7054 -0.4497
vn 0.5000 0.7071 -0.5000
vn 0.4497 0.7054 -0.5479
vn 0.3928 0.7071 -0.5879
vn 0.3341 0.7054 -0.6251
vn 0.2706 0.7071 -0.6533
vn 0.2058 0.7054 -0.6783
vn 0.1379 0.7071 -0.6935
vn 0.0695 0.7054 -0.7054
vn 0.0000 0.7071 -0.7071
vn -0.0695 0.7054 -0.7054
vn -0.1379 0.7071 -0.6935
vn -0.2058 0.7054 -0.6783
vn -0.2706 0.7071 -0.6533
vn -0.3341 0.7054 -0.6251
vn -0.3928 0.7071 -0.5879
vn -0.4497 0.7054 -0.5479
vn -0.5000 0.7071 -0.5000
vn -0.5479 0.7054 -0.4497
vn -0.5879 0.7071 -0.3928
vn -0.6251 0.7054 -0.3341
vn -0.6533 0.7071 -0.2706
vn -0.6783 0.7054 -0.2058
vn -0.6935 0.7071 -0.1379
vn -0.7054 0.7054 -0.0695
vn -0.7071 0.7071 0.0000
vn -0.7054 0.7054 0.0695
vn -0.6935 0.7071 0.1380
vn -0.6783 0.7054 0.2058
vn -0.6533 0.7071 0.2706
vn -0.6251 0.7054 0.3341
vn -0.5879 0.7071 0.3928
vn -0.5479 0.7054 0.4497
vn -0.5000 0.7071 0.5000
vn -0.4497 0.7054 0.5479
vn -0.3928 0.7071 0.5879
vn -0.3341 0.7054 0.6251
vn -0.2706 0.7071 0.6533
vn -0.2058 0.7054 0.6783
vn -0.1379 0.7071 0.6935
vn -0.0695 0.7054 0.7054
vn 0.0000 0.7071 0.7071
vn 0.0695 0.7054 0.7054
vn 0.1380 0.7071 0.6935
vn 0.2058 0.7054 0.6783
vn 0.2706 0.7071 0.6533
vn 0.3341 0.7054 0.6251
vn 0.3928 0.7071 0.5879
vn 0.4497 0.7054 0.5479
vn 0.5000 0.7071 0.5000
vn 0.5479 0.7054 0.4497
vn 0.5879 0.7071 0.3928
vn 0.6251 0.7054 0.3341
vn 0.6533 0.7071 0.2706
vn 0.6783 0.7054 0.2058
vn 0.6935 0.7071 0.1379
vn 1.0000 0.0000 -0.0000
# 66 vertex normals

vt 0.5000 0.0000 0.0000
vt 0.7813 0.0000 1.0000
vt 0.7500 0.0000 1.0000
vt 0.8125 0.0000 1.0000
vt 0.8438 0.0000 1.0000
vt 0.8750 0.0000 1.0000
vt 0.9062 0.0000 1.0000
vt 0.9375 0.0000 1.0000
vt 0.9688 0.0000 1.0000
vt 1.0000 0.0000 1.0000
vt 0.0313 0.0000 1.0000
vt -0.0000 0.0000 1.0000
vt 0.0625 0.0000 1.0000
vt 0.0938 0.0000 1.0000
vt 0.1250 0.0000 1.0000
vt 0.1563 0.0000 1.0000
vt 0.1875 0.0000 1.0000
vt 0.2188 0.0000 1.0000
vt 0.2500 0.0000 1.0000
vt 0.2813 0.0000 1.0000
vt 0.3125 0.0000 1.0000
vt 0.3438 0.0000 1.0000
vt 0.3750 0.0000 1.0000
vt 0.4063 0.0000 1.0000
vt 0.4375 0.0000 1.0000
vt 0.4688 0.0000 1.0000
vt 0.5000 0.0000 1.0000
vt 0.5313 0.0000 1.0000
vt 0.5625 0.0000 1.0000
vt 0.5938 0.0000 1.0000
vt 0.6250 0.0000 1.0000
vt 0.6563 0.0000 1.0000
vt 0.6875 0.0000 1.0000
vt 0.7188 0.0000 1.0000
vt 0.5000 1.0000 0.0000
# 35 texture coords

g Cone001
f 1/1/1 2/2/1 3/3/1 
f 1/1/1 4/4/1 2/2/1 
f 1/1/1 5/5/1 4/4/1 
f 1/1/1 6/6/1 5/5/1 
f 1/1/1 7/7/1 6/6/1 
f 1/1/1 8/8/1 7/7/1 
f 1/1/1 9/9/1 8/8/1 
f 1/1/1 10/10/1 9/9/1 
f 1/1/1 11/11/1 10/12/1 
f 1/1/1 12/13/1 11/11/1 
f 1/1/1 13/14/1 12/13/1 
f 1/1/1 14/15/1 13/14/1 
f 1/1/1 15/16/1 14/15/1 
f 1/1/1 16/17/1 15/16/1 
f 1/1/1 17/18/1 16/17/1 
f 1/1/1 18/19/1 17/18/1 
f 1/1/1 19/20/1 18/19/1 
f 1/1/1 20/21/1 19/20/1 
f 1/1/1 21/22/1 20/21/1 
f 1/1/1 22/23/1 21/22/1 
f 1/1/1 23/24/1 22/23/1 
f 1/1/1 24/25/1 23/24/1 
f 1/1/1 25/26/1 24/25/1 
f 1/1/1 26/27/1 25/26/1 
f 1/1/1 27/28/1 26/27/1 
f 1/1/1 28/29/1 27/28/1 
f 1/1/1 29/30/1 28/29/1 
f 1/1/1 30/31/1 29/30/1 
f 1/1/1 31/32/1 30/31/1 
f 1/1/1 32/33/1 31/32/1 
f 1/1/1 33/34/1 32/33/1 
f 1/1/1 3/3/1 33/34/1 
f 3/3/2 34/35/3 34/35/4 
f 3/3/2 2/2/5 34/35/3 
f 2/2/5 34/35/6 34/35/3 
f 2/2/5 4/4/7 34/35/6 
f 4/4/7 34/35/8 34/35/6 
f 4/4/7 5/5/9 34/35/8 
f 5/5/9 34/35/10 34/35/8 
f 5/5/9 6/6/11 34/35/10 
f 6/6/11 34/35/12 34/35/10 
f 6/6/11 7/7/13 34/35/12 
f 7/7/13 34/35/14 34/35/12 
f 7/7/13 8/8/15 34/35/14 
f 8/8/15 34/35/16 34/35/14 
f 8/8/15 9/9/17 34/35/16 
f 9/9/17 34/35/18 34/35/16 
f 9/9/17 10/10/19 34/35/18 
f 10/10/19 34/35/20 34/35/18 
f 10/12/19 11/11/21 34/35/20 
f 11/11/21 34/35/22 34/35/20 
f 11/11/21 12/13/23 34/35/22 
f 12/13/23 34/35/24 34/35/22 
f 12/13/23 13/14/25 34/35/24 
f 13/14/25 34/35/26 34/35/24 
f 13/14/25 14/15/27 34/35/26 
f 14/15/27 34/35/28 34/35/26 
f 14/15/27 15/16/29 34/35/28 
f 15/16/29 34/35/30 34/35/28 
f 15/16/29 16/17/31 34/35/30 
f 16/17/31 34/35/32 34/35/30 
f 16/17/31 17/18/33 34/35/32 
f 17/18/33 34/35/34 34/35/32 
f 17/18/33 18/19/35 34/35/34 
f 18/19/35 34/35/36 34/35/34 
f 18/19/35 19/20/37 34/35/36 
f 19/20/37 34/35/38 34/35/36 
f 19/20/37 20/21/39 34/35/38 
f 20/21/39 34/35/40 34/35/38 
f 20/21/39 21/22/41 34/35/40 
f 21/22/41 34/35/42 34/35/40 
f 21/22/41 22/23/43 34/35/42 
f 22/23/43 34/35/44 34/35/42 
f 22/23/43 23/24/45 34/35/44 
f 23/24/45 34/35/46 34/35/44 
f 23/24/45 24/25/47 34/35/46 
f 24/25/47 34/35/48 34/35/46 
f 24/25/47 25/26/49 34/35/48 
f 25/26/49 34/35/50 34/35/48 
f 25/26/49 26/27/51 34/35/50 
f 26/27/51 34/35/52 34/35/50 
f 26/27/51 27/28/53 34/35/52 
f 27/28/53 34/35/54 34/35/52 
f 27/28/53 28/29/55 34/35/54 
f 28/29/55 34/35/56 34/35/54 
f 28/29/55 29/30/57 34/35/56 
f 29/30/57 34/35/58 34/35/56 
f 29/30/57 30/31/59 34/35/58 
f 30/31/59 34/35/60 34/35/58 
f 30/31/59 31/32/61 34/35/60 
f 31/32/61 34/35/62 34/35/60 
f 31/32/61 32/33/63 34/35/62 
f 32/33/63 34/35/64 34/35/62 
f 32/33/63 33/34/65 34/35/64 
f 33/34/65 34/35/4 34/35/64 
f 33/34/65 3/3/2 34/35/4 
f 34/35/66 34/35/66 34/35/66 
f 34/35/66 34/35/66 34/35/66 
f 34/35/66 34/35/66 34/35/66 
f 34/35/66 34/35/66 34/35/66 
f 34/35/66 34/35/66 34/35/66 
f 34/35/66 34/35/66 34/35/66 
f 34/35/66 34/35/66 34/35/66 
f 34/35/66 34/35/66 34/35/66 
f 34/35/66 34/35/66 34/35/66 
f 34/35/66 34/35/66 34/35/66 
f 34/35/66 34/35/66 34/35/66 
f 34/35/66 34/35/66 34/35/66 
f 34/35/66 34/35/66 34/35/66 
f 34/35/66 34/35/66 34/35/66 
f 34/35/66 34/35/66 34/35/66 
f 34/35/66 34/35/66 34/35/66 
f 34/35/66 34/35/66 34/35/66 
f 34/35/66 34/35/66 34/35/66 
f 34/35/66 34/35/66 34/35/66 
f 34/35/66 34/35/66 34/35/66 
f 34/35/66 34/35/66 34/35/66 
f 34/35/66 34/35/66 34/35/66 
f 34/35/66 34/35/66 34/35/66 
f 34/35/66 34/35/66 34/35/66 
f 34/35/66 34/35/66 34/35/66 
f 34/35/66 34/35/66 34/35/66 
f 34/35/66 34/35/66 34/35/66 
f 34/35/66 34/35/66 34/35/66 
f 34/35/66 34/35/66 34/35/66 
f 34/35/66 34/35/66 34/35/66 
f 34/35/66 34/35/66 34/35/66 
f 34/35/66 34/35/66 34/35/66 
# 128 faces

