# 3ds Max Wavefront OBJ Exporter v0.97b - (c)2007 guruware
# File Created: 26.12.2016 11:49:57

#
# object Cylinder001
#

v  0.0000 0.0000 -0.0000
v  0.9808 0.0000 -0.1951
v  1.0000 0.0000 -0.0000
v  0.9239 0.0000 -0.3827
v  0.8315 0.0000 -0.5556
v  0.7071 0.0000 -0.7071
v  0.5556 0.0000 -0.8315
v  0.3827 0.0000 -0.9239
v  0.1951 0.0000 -0.9808
v  0.0000 0.0000 -1.0000
v  -0.1951 0.0000 -0.9808
v  -0.3827 0.0000 -0.9239
v  -0.5556 0.0000 -0.8315
v  -0.7071 0.0000 -0.7071
v  -0.8315 0.0000 -0.5556
v  -0.9239 0.0000 -0.3827
v  -0.9808 0.0000 -0.1951
v  -1.0000 0.0000 0.0000
v  -0.9808 0.0000 0.1951
v  -0.9239 0.0000 0.3827
v  -0.8315 0.0000 0.5556
v  -0.7071 0.0000 0.7071
v  -0.5556 0.0000 0.8315
v  -0.3827 0.0000 0.9239
v  -0.1951 0.0000 0.9808
v  0.0000 0.0000 1.0000
v  0.1951 0.0000 0.9808
v  0.3827 0.0000 0.9239
v  0.5556 0.0000 0.8315
v  0.7071 0.0000 0.7071
v  0.8315 0.0000 0.5556
v  0.9239 0.0000 0.3827
v  0.9808 0.0000 0.1951
v  0.9808 1.0000 -0.1951
v  1.0000 1.0000 -0.0000
v  0.9239 1.0000 -0.3827
v  0.8315 1.0000 -0.5556
v  0.7071 1.0000 -0.7071
v  0.5556 1.0000 -0.8315
v  0.3827 1.0000 -0.9239
v  0.1951 1.0000 -0.9808
v  0.0000 1.0000 -1.0000
v  -0.1951 1.0000 -0.9808
v  -0.3827 1.0000 -0.9239
v  -0.5556 1.0000 -0.8315
v  -0.7071 1.0000 -0.7071
v  -0.8315 1.0000 -0.5556
v  -0.9239 1.0000 -0.3827
v  -0.9808 1.0000 -0.1951
v  -1.0000 1.0000 0.0000
v  -0.9808 1.0000 0.1951
v  -0.9239 1.0000 0.3827
v  -0.8315 1.0000 0.5556
v  -0.7071 1.0000 0.7071
v  -0.5556 1.0000 0.8315
v  -0.3827 1.0000 0.9239
v  -0.1951 1.0000 0.9808
v  0.0000 1.0000 1.0000
v  0.1951 1.0000 0.9808
v  0.3827 1.0000 0.9239
v  0.5556 1.0000 0.8315
v  0.7071 1.0000 0.7071
v  0.8315 1.0000 0.5556
v  0.9239 1.0000 0.3827
v  0.9808 1.0000 0.1951
v  0.0000 1.0000 -0.0000
# 66 vertices

vn 0.0000 -1.0000 -0.0000
vn 1.0000 0.0000 -0.0000
vn 0.9808 0.0000 -0.1951
vn 0.9239 0.0000 -0.3827
vn 0.8315 0.0000 -0.5556
vn 0.7071 0.0000 -0.7071
vn 0.5556 0.0000 -0.8315
vn 0.3827 0.0000 -0.9239
vn 0.1951 0.0000 -0.9808
vn 0.0000 0.0000 -1.0000
vn -0.1951 0.0000 -0.9808
vn -0.3827 0.0000 -0.9239
vn -0.5556 0.0000 -0.8315
vn -0.7071 0.0000 -0.7071
vn -0.8315 0.0000 -0.5556
vn -0.9239 0.0000 -0.3827
vn -0.9808 0.0000 -0.1951
vn -1.0000 0.0000 0.0000
vn -0.9808 0.0000 0.1951
vn -0.9239 0.0000 0.3827
vn -0.8315 0.0000 0.5556
vn -0.7071 0.0000 0.7071
vn -0.5556 0.0000 0.8315
vn -0.3827 0.0000 0.9239
vn -0.1951 0.0000 0.9808
vn 0.0000 0.0000 1.0000
vn 0.1951 0.0000 0.9808
vn 0.3827 0.0000 0.9239
vn 0.5556 0.0000 0.8315
vn 0.7071 0.0000 0.7071
vn 0.8315 0.0000 0.5556
vn 0.9239 0.0000 0.3827
vn 0.9808 0.0000 0.1951
vn 0.0000 1.0000 -0.0000
# 34 vertex normals

vt 0.5000 0.0000 0.0000
vt 0.7813 0.0000 1.0000
vt 0.7500 0.0000 1.0000
vt 0.8125 0.0000 1.0000
vt 0.8438 0.0000 1.0000
vt 0.8750 0.0000 1.0000
vt 0.9062 0.0000 1.0000
vt 0.9375 0.0000 1.0000
vt 0.9688 0.0000 1.0000
vt 1.0000 0.0000 1.0000
vt 0.0313 0.0000 1.0000
vt -0.0000 0.0000 1.0000
vt 0.0625 0.0000 1.0000
vt 0.0938 0.0000 1.0000
vt 0.1250 0.0000 1.0000
vt 0.1563 0.0000 1.0000
vt 0.1875 0.0000 1.0000
vt 0.2188 0.0000 1.0000
vt 0.2500 0.0000 1.0000
vt 0.2813 0.0000 1.0000
vt 0.3125 0.0000 1.0000
vt 0.3438 0.0000 1.0000
vt 0.3750 0.0000 1.0000
vt 0.4063 0.0000 1.0000
vt 0.4375 0.0000 1.0000
vt 0.4688 0.0000 1.0000
vt 0.5000 0.0000 1.0000
vt 0.5313 0.0000 1.0000
vt 0.5625 0.0000 1.0000
vt 0.5938 0.0000 1.0000
vt 0.6250 0.0000 1.0000
vt 0.6563 0.0000 1.0000
vt 0.6875 0.0000 1.0000
vt 0.7188 0.0000 1.0000
vt 0.7813 1.0000 1.0000
vt 0.7500 1.0000 1.0000
vt 0.8125 1.0000 1.0000
vt 0.8438 1.0000 1.0000
vt 0.8750 1.0000 1.0000
vt 0.9062 1.0000 1.0000
vt 0.9375 1.0000 1.0000
vt 0.9688 1.0000 1.0000
vt 1.0000 1.0000 1.0000
vt 0.0313 1.0000 1.0000
vt -0.0000 1.0000 1.0000
vt 0.0625 1.0000 1.0000
vt 0.0938 1.0000 1.0000
vt 0.1250 1.0000 1.0000
vt 0.1563 1.0000 1.0000
vt 0.1875 1.0000 1.0000
vt 0.2188 1.0000 1.0000
vt 0.2500 1.0000 1.0000
vt 0.2813 1.0000 1.0000
vt 0.3125 1.0000 1.0000
vt 0.3438 1.0000 1.0000
vt 0.3750 1.0000 1.0000
vt 0.4063 1.0000 1.0000
vt 0.4375 1.0000 1.0000
vt 0.4688 1.0000 1.0000
vt 0.5000 1.0000 1.0000
vt 0.5313 1.0000 1.0000
vt 0.5625 1.0000 1.0000
vt 0.5938 1.0000 1.0000
vt 0.6250 1.0000 1.0000
vt 0.6563 1.0000 1.0000
vt 0.6875 1.0000 1.0000
vt 0.7188 1.0000 1.0000
vt 0.5000 1.0000 0.0000
# 68 texture coords

g Cylinder001
f 1/1/1 2/2/1 3/3/1 
f 1/1/1 4/4/1 2/2/1 
f 1/1/1 5/5/1 4/4/1 
f 1/1/1 6/6/1 5/5/1 
f 1/1/1 7/7/1 6/6/1 
f 1/1/1 8/8/1 7/7/1 
f 1/1/1 9/9/1 8/8/1 
f 1/1/1 10/10/1 9/9/1 
f 1/1/1 11/11/1 10/12/1 
f 1/1/1 12/13/1 11/11/1 
f 1/1/1 13/14/1 12/13/1 
f 1/1/1 14/15/1 13/14/1 
f 1/1/1 15/16/1 14/15/1 
f 1/1/1 16/17/1 15/16/1 
f 1/1/1 17/18/1 16/17/1 
f 1/1/1 18/19/1 17/18/1 
f 1/1/1 19/20/1 18/19/1 
f 1/1/1 20/21/1 19/20/1 
f 1/1/1 21/22/1 20/21/1 
f 1/1/1 22/23/1 21/22/1 
f 1/1/1 23/24/1 22/23/1 
f 1/1/1 24/25/1 23/24/1 
f 1/1/1 25/26/1 24/25/1 
f 1/1/1 26/27/1 25/26/1 
f 1/1/1 27/28/1 26/27/1 
f 1/1/1 28/29/1 27/28/1 
f 1/1/1 29/30/1 28/29/1 
f 1/1/1 30/31/1 29/30/1 
f 1/1/1 31/32/1 30/31/1 
f 1/1/1 32/33/1 31/32/1 
f 1/1/1 33/34/1 32/33/1 
f 1/1/1 3/3/1 33/34/1 
f 3/3/2 34/35/3 35/36/2 
f 3/3/2 2/2/3 34/35/3 
f 2/2/3 36/37/4 34/35/3 
f 2/2/3 4/4/4 36/37/4 
f 4/4/4 37/38/5 36/37/4 
f 4/4/4 5/5/5 37/38/5 
f 5/5/5 38/39/6 37/38/5 
f 5/5/5 6/6/6 38/39/6 
f 6/6/6 39/40/7 38/39/6 
f 6/6/6 7/7/7 39/40/7 
f 7/7/7 40/41/8 39/40/7 
f 7/7/7 8/8/8 40/41/8 
f 8/8/8 41/42/9 40/41/8 
f 8/8/8 9/9/9 41/42/9 
f 9/9/9 42/43/10 41/42/9 
f 9/9/9 10/10/10 42/43/10 
f 10/12/10 43/44/11 42/45/10 
f 10/12/10 11/11/11 43/44/11 
f 11/11/11 44/46/12 43/44/11 
f 11/11/11 12/13/12 44/46/12 
f 12/13/12 45/47/13 44/46/12 
f 12/13/12 13/14/13 45/47/13 
f 13/14/13 46/48/14 45/47/13 
f 13/14/13 14/15/14 46/48/14 
f 14/15/14 47/49/15 46/48/14 
f 14/15/14 15/16/15 47/49/15 
f 15/16/15 48/50/16 47/49/15 
f 15/16/15 16/17/16 48/50/16 
f 16/17/16 49/51/17 48/50/16 
f 16/17/16 17/18/17 49/51/17 
f 17/18/17 50/52/18 49/51/17 
f 17/18/17 18/19/18 50/52/18 
f 18/19/18 51/53/19 50/52/18 
f 18/19/18 19/20/19 51/53/19 
f 19/20/19 52/54/20 51/53/19 
f 19/20/19 20/21/20 52/54/20 
f 20/21/20 53/55/21 52/54/20 
f 20/21/20 21/22/21 53/55/21 
f 21/22/21 54/56/22 53/55/21 
f 21/22/21 22/23/22 54/56/22 
f 22/23/22 55/57/23 54/56/22 
f 22/23/22 23/24/23 55/57/23 
f 23/24/23 56/58/24 55/57/23 
f 23/24/23 24/25/24 56/58/24 
f 24/25/24 57/59/25 56/58/24 
f 24/25/24 25/26/25 57/59/25 
f 25/26/25 58/60/26 57/59/25 
f 25/26/25 26/27/26 58/60/26 
f 26/27/26 59/61/27 58/60/26 
f 26/27/26 27/28/27 59/61/27 
f 27/28/27 60/62/28 59/61/27 
f 27/28/27 28/29/28 60/62/28 
f 28/29/28 61/63/29 60/62/28 
f 28/29/28 29/30/29 61/63/29 
f 29/30/29 62/64/30 61/63/29 
f 29/30/29 30/31/30 62/64/30 
f 30/31/30 63/65/31 62/64/30 
f 30/31/30 31/32/31 63/65/31 
f 31/32/31 64/66/32 63/65/31 
f 31/32/31 32/33/32 64/66/32 
f 32/33/32 65/67/33 64/66/32 
f 32/33/32 33/34/33 65/67/33 
f 33/34/33 35/36/2 65/67/33 
f 33/34/33 3/3/2 35/36/2 
f 66/68/34 35/36/34 34/35/34 
f 66/68/34 34/35/34 36/37/34 
f 66/68/34 36/37/34 37/38/34 
f 66/68/34 37/38/34 38/39/34 
f 66/68/34 38/39/34 39/40/34 
f 66/68/34 39/40/34 40/41/34 
f 66/68/34 40/41/34 41/42/34 
f 66/68/34 41/42/34 42/43/34 
f 66/68/34 42/45/34 43/44/34 
f 66/68/34 43/44/34 44/46/34 
f 66/68/34 44/46/34 45/47/34 
f 66/68/34 45/47/34 46/48/34 
f 66/68/34 46/48/34 47/49/34 
f 66/68/34 47/49/34 48/50/34 
f 66/68/34 48/50/34 49/51/34 
f 66/68/34 49/51/34 50/52/34 
f 66/68/34 50/52/34 51/53/34 
f 66/68/34 51/53/34 52/54/34 
f 66/68/34 52/54/34 53/55/34 
f 66/68/34 53/55/34 54/56/34 
f 66/68/34 54/56/34 55/57/34 
f 66/68/34 55/57/34 56/58/34 
f 66/68/34 56/58/34 57/59/34 
f 66/68/34 57/59/34 58/60/34 
f 66/68/34 58/60/34 59/61/34 
f 66/68/34 59/61/34 60/62/34 
f 66/68/34 60/62/34 61/63/34 
f 66/68/34 61/63/34 62/64/34 
f 66/68/34 62/64/34 63/65/34 
f 66/68/34 63/65/34 64/66/34 
f 66/68/34 64/66/34 65/67/34 
f 66/68/34 65/67/34 35/36/34 
# 128 faces

