# 3ds Max Wavefront OBJ Exporter v0.97b - (c)2007 guruware
# File Created: 26.12.2016 11:55:21

#
# object Tube001
#

v  -0.0000 0.0000 -1.0000
v  0.1951 1.0000 -0.9808
v  0.1951 0.0000 -0.9808
v  -0.0000 1.0000 -1.0000
v  0.0975 1.0000 -0.4904
v  -0.0000 1.0000 -0.5000
v  0.0975 0.0000 -0.4904
v  -0.0000 0.0000 -0.5000
v  0.3827 1.0000 -0.9239
v  0.3827 0.0000 -0.9239
v  0.1913 1.0000 -0.4619
v  0.1913 0.0000 -0.4619
v  0.5556 1.0000 -0.8315
v  0.5556 0.0000 -0.8315
v  0.2778 1.0000 -0.4157
v  0.2778 0.0000 -0.4157
v  0.7071 1.0000 -0.7071
v  0.7071 0.0000 -0.7071
v  0.3536 1.0000 -0.3536
v  0.3536 0.0000 -0.3536
v  0.8315 1.0000 -0.5556
v  0.8315 0.0000 -0.5556
v  0.4157 1.0000 -0.2778
v  0.4157 0.0000 -0.2778
v  0.9239 1.0000 -0.3827
v  0.9239 0.0000 -0.3827
v  0.4619 1.0000 -0.1913
v  0.4619 0.0000 -0.1913
v  0.9808 1.0000 -0.1951
v  0.9808 0.0000 -0.1951
v  0.4904 1.0000 -0.0975
v  0.4904 0.0000 -0.0975
v  1.0000 1.0000 -0.0000
v  1.0000 0.0000 -0.0000
v  0.5000 1.0000 -0.0000
v  0.5000 0.0000 -0.0000
v  0.9808 1.0000 0.1951
v  0.9808 0.0000 0.1951
v  0.4904 1.0000 0.0975
v  0.4904 0.0000 0.0975
v  0.9239 1.0000 0.3827
v  0.9239 0.0000 0.3827
v  0.4619 1.0000 0.1913
v  0.4619 0.0000 0.1913
v  0.8315 1.0000 0.5556
v  0.8315 0.0000 0.5556
v  0.4157 1.0000 0.2778
v  0.4157 0.0000 0.2778
v  0.7071 1.0000 0.7071
v  0.7071 0.0000 0.7071
v  0.3536 1.0000 0.3536
v  0.3536 0.0000 0.3536
v  0.5556 1.0000 0.8315
v  0.5556 0.0000 0.8315
v  0.2778 1.0000 0.4157
v  0.2778 0.0000 0.4157
v  0.3827 1.0000 0.9239
v  0.3827 0.0000 0.9239
v  0.1913 1.0000 0.4619
v  0.1913 0.0000 0.4619
v  0.1951 1.0000 0.9808
v  0.1951 0.0000 0.9808
v  0.0975 1.0000 0.4904
v  0.0975 0.0000 0.4904
v  0.0000 1.0000 1.0000
v  0.0000 0.0000 1.0000
v  0.0000 1.0000 0.5000
v  0.0000 0.0000 0.5000
v  -0.1951 1.0000 0.9808
v  -0.1951 0.0000 0.9808
v  -0.0975 1.0000 0.4904
v  -0.0975 0.0000 0.4904
v  -0.3827 1.0000 0.9239
v  -0.3827 0.0000 0.9239
v  -0.1913 1.0000 0.4619
v  -0.1913 0.0000 0.4619
v  -0.5556 1.0000 0.8315
v  -0.5556 0.0000 0.8315
v  -0.2778 1.0000 0.4157
v  -0.2778 0.0000 0.4157
v  -0.7071 1.0000 0.7071
v  -0.7071 0.0000 0.7071
v  -0.3536 1.0000 0.3536
v  -0.3536 0.0000 0.3536
v  -0.8315 1.0000 0.5556
v  -0.8315 0.0000 0.5556
v  -0.4157 1.0000 0.2778
v  -0.4157 0.0000 0.2778
v  -0.9239 1.0000 0.3827
v  -0.9239 0.0000 0.3827
v  -0.4619 1.0000 0.1913
v  -0.4619 0.0000 0.1913
v  -0.9808 1.0000 0.1951
v  -0.9808 0.0000 0.1951
v  -0.4904 1.0000 0.0975
v  -0.4904 0.0000 0.0975
v  -1.0000 1.0000 -0.0000
v  -1.0000 0.0000 -0.0000
v  -0.5000 1.0000 -0.0000
v  -0.5000 0.0000 -0.0000
v  -0.9808 1.0000 -0.1951
v  -0.9808 0.0000 -0.1951
v  -0.4904 1.0000 -0.0975
v  -0.4904 0.0000 -0.0975
v  -0.9239 1.0000 -0.3827
v  -0.9239 0.0000 -0.3827
v  -0.4619 1.0000 -0.1913
v  -0.4619 0.0000 -0.1913
v  -0.8315 1.0000 -0.5556
v  -0.8315 0.0000 -0.5556
v  -0.4157 1.0000 -0.2778
v  -0.4157 0.0000 -0.2778
v  -0.7071 1.0000 -0.7071
v  -0.7071 0.0000 -0.7071
v  -0.3536 1.0000 -0.3536
v  -0.3536 0.0000 -0.3536
v  -0.5556 1.0000 -0.8315
v  -0.5556 0.0000 -0.8315
v  -0.2778 1.0000 -0.4157
v  -0.2778 0.0000 -0.4157
v  -0.3827 1.0000 -0.9239
v  -0.3827 0.0000 -0.9239
v  -0.1913 1.0000 -0.4619
v  -0.1913 0.0000 -0.4619
v  -0.1951 1.0000 -0.9808
v  -0.1951 0.0000 -0.9808
v  -0.0975 1.0000 -0.4904
v  -0.0975 0.0000 -0.4904
# 128 vertices

vn 0.0000 0.0000 -1.0000
vn 0.1951 0.0000 -0.9808
vn 0.0000 1.0000 -0.0000
vn -0.0000 0.0000 1.0000
vn -0.1951 0.0000 0.9808
vn 0.0000 -1.0000 -0.0000
vn 0.3827 0.0000 -0.9239
vn -0.3827 0.0000 0.9239
vn 0.5556 0.0000 -0.8315
vn -0.5556 0.0000 0.8315
vn 0.7071 0.0000 -0.7071
vn -0.7071 0.0000 0.7071
vn 0.8315 0.0000 -0.5556
vn -0.8315 0.0000 0.5556
vn 0.9239 0.0000 -0.3827
vn -0.9239 0.0000 0.3827
vn 0.9808 0.0000 -0.1951
vn -0.9808 0.0000 0.1951
vn 1.0000 0.0000 -0.0000
vn -1.0000 0.0000 0.0000
vn 0.9808 0.0000 0.1951
vn -0.9808 0.0000 -0.1951
vn 0.9239 0.0000 0.3827
vn -0.9239 0.0000 -0.3827
vn 0.8315 0.0000 0.5556
vn -0.8315 0.0000 -0.5556
vn 0.7071 0.0000 0.7071
vn -0.7071 0.0000 -0.7071
vn 0.5556 0.0000 0.8315
vn -0.5556 0.0000 -0.8315
vn 0.3827 0.0000 0.9239
vn -0.3827 0.0000 -0.9239
vn 0.1951 0.0000 0.9808
vn -0.1951 0.0000 -0.9808
vn 0.0000 0.0000 1.0000
vn -0.0000 0.0000 -1.0000
vn -1.0000 0.0000 -0.0000
vn 1.0000 0.0000 0.0000
# 38 vertex normals

vt 0.0000 0.0000 0.0000
vt 0.2500 0.0313 0.0000
vt 0.0000 0.0313 0.0000
vt 0.2500 0.0000 0.0000
vt 0.5000 0.0313 0.0000
vt 0.5000 0.0000 0.0000
vt 0.7500 0.0313 0.0000
vt 0.7500 0.0000 0.0000
vt 1.0000 0.0313 0.0000
vt 1.0000 0.0000 0.0000
vt 0.2500 0.0625 0.0000
vt 0.0000 0.0625 0.0000
vt 0.5000 0.0625 0.0000
vt 0.7500 0.0625 0.0000
vt 1.0000 0.0625 0.0000
vt 0.2500 0.0938 0.0000
vt 0.0000 0.0938 0.0000
vt 0.5000 0.0938 0.0000
vt 0.7500 0.0938 0.0000
vt 1.0000 0.0938 0.0000
vt 0.2500 0.1250 0.0000
vt 0.0000 0.1250 0.0000
vt 0.5000 0.1250 0.0000
vt 0.7500 0.1250 0.0000
vt 1.0000 0.1250 0.0000
vt 0.2500 0.1563 0.0000
vt 0.0000 0.1563 0.0000
vt 0.5000 0.1563 0.0000
vt 0.7500 0.1563 0.0000
vt 1.0000 0.1563 0.0000
vt 0.2500 0.1875 0.0000
vt 0.0000 0.1875 0.0000
vt 0.5000 0.1875 0.0000
vt 0.7500 0.1875 0.0000
vt 1.0000 0.1875 0.0000
vt 0.2500 0.2188 0.0000
vt 0.0000 0.2188 0.0000
vt 0.5000 0.2188 0.0000
vt 0.7500 0.2188 0.0000
vt 1.0000 0.2188 0.0000
vt 0.2500 0.2500 0.0000
vt 0.0000 0.2500 0.0000
vt 0.5000 0.2500 0.0000
vt 0.7500 0.2500 0.0000
vt 1.0000 0.2500 0.0000
vt 0.2500 0.2813 0.0000
vt 0.0000 0.2813 0.0000
vt 0.5000 0.2813 0.0000
vt 0.7500 0.2813 0.0000
vt 1.0000 0.2813 0.0000
vt 0.2500 0.3125 0.0000
vt 0.0000 0.3125 0.0000
vt 0.5000 0.3125 0.0000
vt 0.7500 0.3125 0.0000
vt 1.0000 0.3125 0.0000
vt 0.2500 0.3438 0.0000
vt 0.0000 0.3438 0.0000
vt 0.5000 0.3438 0.0000
vt 0.7500 0.3438 0.0000
vt 1.0000 0.3438 0.0000
vt 0.2500 0.3750 0.0000
vt 0.0000 0.3750 0.0000
vt 0.5000 0.3750 0.0000
vt 0.7500 0.3750 0.0000
vt 1.0000 0.3750 0.0000
vt 0.2500 0.4063 0.0000
vt 0.0000 0.4063 0.0000
vt 0.5000 0.4063 0.0000
vt 0.7500 0.4063 0.0000
vt 1.0000 0.4063 0.0000
vt 0.2500 0.4375 0.0000
vt 0.0000 0.4375 0.0000
vt 0.5000 0.4375 0.0000
vt 0.7500 0.4375 0.0000
vt 1.0000 0.4375 0.0000
vt 0.2500 0.4688 0.0000
vt 0.0000 0.4688 0.0000
vt 0.5000 0.4688 0.0000
vt 0.7500 0.4688 0.0000
vt 1.0000 0.4688 0.0000
vt 0.2500 0.5000 0.0000
vt 0.0000 0.5000 0.0000
vt 0.5000 0.5000 0.0000
vt 0.7500 0.5000 0.0000
vt 1.0000 0.5000 0.0000
vt 0.2500 0.5313 0.0000
vt 0.0000 0.5313 0.0000
vt 0.5000 0.5313 0.0000
vt 0.7500 0.5313 0.0000
vt 1.0000 0.5313 0.0000
vt 0.2500 0.5625 0.0000
vt 0.0000 0.5625 0.0000
vt 0.5000 0.5625 0.0000
vt 0.7500 0.5625 0.0000
vt 1.0000 0.5625 0.0000
vt 0.2500 0.5938 0.0000
vt 0.0000 0.5938 0.0000
vt 0.5000 0.5938 0.0000
vt 0.7500 0.5938 0.0000
vt 1.0000 0.5938 0.0000
vt 0.2500 0.6250 0.0000
vt 0.0000 0.6250 0.0000
vt 0.5000 0.6250 0.0000
vt 0.7500 0.6250 0.0000
vt 1.0000 0.6250 0.0000
vt 0.2500 0.6563 0.0000
vt 0.0000 0.6563 0.0000
vt 0.5000 0.6563 0.0000
vt 0.7500 0.6563 0.0000
vt 1.0000 0.6563 0.0000
vt 0.2500 0.6875 0.0000
vt 0.0000 0.6875 0.0000
vt 0.5000 0.6875 0.0000
vt 0.7500 0.6875 0.0000
vt 1.0000 0.6875 0.0000
vt 0.2500 0.7188 0.0000
vt 0.0000 0.7188 0.0000
vt 0.5000 0.7188 0.0000
vt 0.7500 0.7188 0.0000
vt 1.0000 0.7188 0.0000
vt 0.2500 0.7500 0.0000
vt 0.0000 0.7500 0.0000
vt 0.5000 0.7500 0.0000
vt 0.7500 0.7500 0.0000
vt 1.0000 0.7500 0.0000
vt 0.2500 0.7813 0.0000
vt 0.0000 0.7813 0.0000
vt 0.5000 0.7813 0.0000
vt 0.7500 0.7813 0.0000
vt 1.0000 0.7813 0.0000
vt 0.2500 0.8125 0.0000
vt 0.0000 0.8125 0.0000
vt 0.5000 0.8125 0.0000
vt 0.7500 0.8125 0.0000
vt 1.0000 0.8125 0.0000
vt 0.2500 0.8438 0.0000
vt 0.0000 0.8438 0.0000
vt 0.5000 0.8438 0.0000
vt 0.7500 0.8438 0.0000
vt 1.0000 0.8438 0.0000
vt 0.2500 0.8750 0.0000
vt 0.0000 0.8750 0.0000
vt 0.5000 0.8750 0.0000
vt 0.7500 0.8750 0.0000
vt 1.0000 0.8750 0.0000
vt 0.2500 0.9063 0.0000
vt 0.0000 0.9063 0.0000
vt 0.5000 0.9063 0.0000
vt 0.7500 0.9063 0.0000
vt 1.0000 0.9063 0.0000
vt 0.2500 0.9375 0.0000
vt 0.0000 0.9375 0.0000
vt 0.5000 0.9375 0.0000
vt 0.7500 0.9375 0.0000
vt 1.0000 0.9375 0.0000
vt 0.2500 0.9688 0.0000
vt 0.0000 0.9688 0.0000
vt 0.5000 0.9688 0.0000
vt 0.7500 0.9688 0.0000
vt 1.0000 0.9688 0.0000
vt 0.2500 1.0000 0.0000
vt 0.0000 1.0000 0.0000
vt 0.5000 1.0000 0.0000
vt 0.7500 1.0000 0.0000
vt 1.0000 1.0000 0.0000
# 165 texture coords

g Tube001
f 1/1/1 2/2/2 3/3/2 
f 1/1/1 4/4/1 2/2/2 
f 4/4/3 5/5/3 2/2/3 
f 4/4/3 6/6/3 5/5/3 
f 6/6/4 7/7/5 5/5/5 
f 6/6/4 8/8/4 7/7/5 
f 8/8/6 3/9/6 7/7/6 
f 8/8/6 1/10/6 3/9/6 
f 3/3/2 9/11/7 10/12/7 
f 3/3/2 2/2/2 9/11/7 
f 2/2/3 11/13/3 9/11/3 
f 2/2/3 5/5/3 11/13/3 
f 5/5/5 12/14/8 11/13/8 
f 5/5/5 7/7/5 12/14/8 
f 7/7/6 10/15/6 12/14/6 
f 7/7/6 3/9/6 10/15/6 
f 10/12/7 13/16/9 14/17/9 
f 10/12/7 9/11/7 13/16/9 
f 9/11/3 15/18/3 13/16/3 
f 9/11/3 11/13/3 15/18/3 
f 11/13/8 16/19/10 15/18/10 
f 11/13/8 12/14/8 16/19/10 
f 12/14/6 14/20/6 16/19/6 
f 12/14/6 10/15/6 14/20/6 
f 14/17/9 17/21/11 18/22/11 
f 14/17/9 13/16/9 17/21/11 
f 13/16/3 19/23/3 17/21/3 
f 13/16/3 15/18/3 19/23/3 
f 15/18/10 20/24/12 19/23/12 
f 15/18/10 16/19/10 20/24/12 
f 16/19/6 18/25/6 20/24/6 
f 16/19/6 14/20/6 18/25/6 
f 18/22/11 21/26/13 22/27/13 
f 18/22/11 17/21/11 21/26/13 
f 17/21/3 23/28/3 21/26/3 
f 17/21/3 19/23/3 23/28/3 
f 19/23/12 24/29/14 23/28/14 
f 19/23/12 20/24/12 24/29/14 
f 20/24/6 22/30/6 24/29/6 
f 20/24/6 18/25/6 22/30/6 
f 22/27/13 25/31/15 26/32/15 
f 22/27/13 21/26/13 25/31/15 
f 21/26/3 27/33/3 25/31/3 
f 21/26/3 23/28/3 27/33/3 
f 23/28/14 28/34/16 27/33/16 
f 23/28/14 24/29/14 28/34/16 
f 24/29/6 26/35/6 28/34/6 
f 24/29/6 22/30/6 26/35/6 
f 26/32/15 29/36/17 30/37/17 
f 26/32/15 25/31/15 29/36/17 
f 25/31/3 31/38/3 29/36/3 
f 25/31/3 27/33/3 31/38/3 
f 27/33/16 32/39/18 31/38/18 
f 27/33/16 28/34/16 32/39/18 
f 28/34/6 30/40/6 32/39/6 
f 28/34/6 26/35/6 30/40/6 
f 30/37/17 33/41/19 34/42/19 
f 30/37/17 29/36/17 33/41/19 
f 29/36/3 35/43/3 33/41/3 
f 29/36/3 31/38/3 35/43/3 
f 31/38/18 36/44/20 35/43/20 
f 31/38/18 32/39/18 36/44/20 
f 32/39/6 34/45/6 36/44/6 
f 32/39/6 30/40/6 34/45/6 
f 34/42/19 37/46/21 38/47/21 
f 34/42/19 33/41/19 37/46/21 
f 33/41/3 39/48/3 37/46/3 
f 33/41/3 35/43/3 39/48/3 
f 35/43/20 40/49/22 39/48/22 
f 35/43/20 36/44/20 40/49/22 
f 36/44/6 38/50/6 40/49/6 
f 36/44/6 34/45/6 38/50/6 
f 38/47/21 41/51/23 42/52/23 
f 38/47/21 37/46/21 41/51/23 
f 37/46/3 43/53/3 41/51/3 
f 37/46/3 39/48/3 43/53/3 
f 39/48/22 44/54/24 43/53/24 
f 39/48/22 40/49/22 44/54/24 
f 40/49/6 42/55/6 44/54/6 
f 40/49/6 38/50/6 42/55/6 
f 42/52/23 45/56/25 46/57/25 
f 42/52/23 41/51/23 45/56/25 
f 41/51/3 47/58/3 45/56/3 
f 41/51/3 43/53/3 47/58/3 
f 43/53/24 48/59/26 47/58/26 
f 43/53/24 44/54/24 48/59/26 
f 44/54/6 46/60/6 48/59/6 
f 44/54/6 42/55/6 46/60/6 
f 46/57/25 49/61/27 50/62/27 
f 46/57/25 45/56/25 49/61/27 
f 45/56/3 51/63/3 49/61/3 
f 45/56/3 47/58/3 51/63/3 
f 47/58/26 52/64/28 51/63/28 
f 47/58/26 48/59/26 52/64/28 
f 48/59/6 50/65/6 52/64/6 
f 48/59/6 46/60/6 50/65/6 
f 50/62/27 53/66/29 54/67/29 
f 50/62/27 49/61/27 53/66/29 
f 49/61/3 55/68/3 53/66/3 
f 49/61/3 51/63/3 55/68/3 
f 51/63/28 56/69/30 55/68/30 
f 51/63/28 52/64/28 56/69/30 
f 52/64/6 54/70/6 56/69/6 
f 52/64/6 50/65/6 54/70/6 
f 54/67/29 57/71/31 58/72/31 
f 54/67/29 53/66/29 57/71/31 
f 53/66/3 59/73/3 57/71/3 
f 53/66/3 55/68/3 59/73/3 
f 55/68/30 60/74/32 59/73/32 
f 55/68/30 56/69/30 60/74/32 
f 56/69/6 58/75/6 60/74/6 
f 56/69/6 54/70/6 58/75/6 
f 58/72/31 61/76/33 62/77/33 
f 58/72/31 57/71/31 61/76/33 
f 57/71/3 63/78/3 61/76/3 
f 57/71/3 59/73/3 63/78/3 
f 59/73/32 64/79/34 63/78/34 
f 59/73/32 60/74/32 64/79/34 
f 60/74/6 62/80/6 64/79/6 
f 60/74/6 58/75/6 62/80/6 
f 62/77/33 65/81/35 66/82/35 
f 62/77/33 61/76/33 65/81/35 
f 61/76/3 67/83/3 65/81/3 
f 61/76/3 63/78/3 67/83/3 
f 63/78/34 68/84/36 67/83/36 
f 63/78/34 64/79/34 68/84/36 
f 64/79/6 66/85/6 68/84/6 
f 64/79/6 62/80/6 66/85/6 
f 66/82/35 69/86/5 70/87/5 
f 66/82/35 65/81/35 69/86/5 
f 65/81/3 71/88/3 69/86/3 
f 65/81/3 67/83/3 71/88/3 
f 67/83/36 72/89/2 71/88/2 
f 67/83/36 68/84/36 72/89/2 
f 68/84/6 70/90/6 72/89/6 
f 68/84/6 66/85/6 70/90/6 
f 70/87/5 73/91/8 74/92/8 
f 70/87/5 69/86/5 73/91/8 
f 69/86/3 75/93/3 73/91/3 
f 69/86/3 71/88/3 75/93/3 
f 71/88/2 76/94/7 75/93/7 
f 71/88/2 72/89/2 76/94/7 
f 72/89/6 74/95/6 76/94/6 
f 72/89/6 70/90/6 74/95/6 
f 74/92/8 77/96/10 78/97/10 
f 74/92/8 73/91/8 77/96/10 
f 73/91/3 79/98/3 77/96/3 
f 73/91/3 75/93/3 79/98/3 
f 75/93/7 80/99/9 79/98/9 
f 75/93/7 76/94/7 80/99/9 
f 76/94/6 78/100/6 80/99/6 
f 76/94/6 74/95/6 78/100/6 
f 78/97/10 81/101/12 82/102/12 
f 78/97/10 77/96/10 81/101/12 
f 77/96/3 83/103/3 81/101/3 
f 77/96/3 79/98/3 83/103/3 
f 79/98/9 84/104/11 83/103/11 
f 79/98/9 80/99/9 84/104/11 
f 80/99/6 82/105/6 84/104/6 
f 80/99/6 78/100/6 82/105/6 
f 82/102/12 85/106/14 86/107/14 
f 82/102/12 81/101/12 85/106/14 
f 81/101/3 87/108/3 85/106/3 
f 81/101/3 83/103/3 87/108/3 
f 83/103/11 88/109/13 87/108/13 
f 83/103/11 84/104/11 88/109/13 
f 84/104/6 86/110/6 88/109/6 
f 84/104/6 82/105/6 86/110/6 
f 86/107/14 89/111/16 90/112/16 
f 86/107/14 85/106/14 89/111/16 
f 85/106/3 91/113/3 89/111/3 
f 85/106/3 87/108/3 91/113/3 
f 87/108/13 92/114/15 91/113/15 
f 87/108/13 88/109/13 92/114/15 
f 88/109/6 90/115/6 92/114/6 
f 88/109/6 86/110/6 90/115/6 
f 90/112/16 93/116/18 94/117/18 
f 90/112/16 89/111/16 93/116/18 
f 89/111/3 95/118/3 93/116/3 
f 89/111/3 91/113/3 95/118/3 
f 91/113/15 96/119/17 95/118/17 
f 91/113/15 92/114/15 96/119/17 
f 92/114/6 94/120/6 96/119/6 
f 92/114/6 90/115/6 94/120/6 
f 94/117/18 97/121/37 98/122/37 
f 94/117/18 93/116/18 97/121/37 
f 93/116/3 99/123/3 97/121/3 
f 93/116/3 95/118/3 99/123/3 
f 95/118/17 100/124/38 99/123/38 
f 95/118/17 96/119/17 100/124/38 
f 96/119/6 98/125/6 100/124/6 
f 96/119/6 94/120/6 98/125/6 
f 98/122/37 101/126/22 102/127/22 
f 98/122/37 97/121/37 101/126/22 
f 97/121/3 103/128/3 101/126/3 
f 97/121/3 99/123/3 103/128/3 
f 99/123/38 104/129/21 103/128/21 
f 99/123/38 100/124/38 104/129/21 
f 100/124/6 102/130/6 104/129/6 
f 100/124/6 98/125/6 102/130/6 
f 102/127/22 105/131/24 106/132/24 
f 102/127/22 101/126/22 105/131/24 
f 101/126/3 107/133/3 105/131/3 
f 101/126/3 103/128/3 107/133/3 
f 103/128/21 108/134/23 107/133/23 
f 103/128/21 104/129/21 108/134/23 
f 104/129/6 106/135/6 108/134/6 
f 104/129/6 102/130/6 106/135/6 
f 106/132/24 109/136/26 110/137/26 
f 106/132/24 105/131/24 109/136/26 
f 105/131/3 111/138/3 109/136/3 
f 105/131/3 107/133/3 111/138/3 
f 107/133/23 112/139/25 111/138/25 
f 107/133/23 108/134/23 112/139/25 
f 108/134/6 110/140/6 112/139/6 
f 108/134/6 106/135/6 110/140/6 
f 110/137/26 113/141/28 114/142/28 
f 110/137/26 109/136/26 113/141/28 
f 109/136/3 115/143/3 113/141/3 
f 109/136/3 111/138/3 115/143/3 
f 111/138/25 116/144/27 115/143/27 
f 111/138/25 112/139/25 116/144/27 
f 112/139/6 114/145/6 116/144/6 
f 112/139/6 110/140/6 114/145/6 
f 114/142/28 117/146/30 118/147/30 
f 114/142/28 113/141/28 117/146/30 
f 113/141/3 119/148/3 117/146/3 
f 113/141/3 115/143/3 119/148/3 
f 115/143/27 120/149/29 119/148/29 
f 115/143/27 116/144/27 120/149/29 
f 116/144/6 118/150/6 120/149/6 
f 116/144/6 114/145/6 118/150/6 
f 118/147/30 121/151/32 122/152/32 
f 118/147/30 117/146/30 121/151/32 
f 117/146/3 123/153/3 121/151/3 
f 117/146/3 119/148/3 123/153/3 
f 119/148/29 124/154/31 123/153/31 
f 119/148/29 120/149/29 124/154/31 
f 120/149/6 122/155/6 124/154/6 
f 120/149/6 118/150/6 122/155/6 
f 122/152/32 125/156/34 126/157/34 
f 122/152/32 121/151/32 125/156/34 
f 121/151/3 127/158/3 125/156/3 
f 121/151/3 123/153/3 127/158/3 
f 123/153/31 128/159/33 127/158/33 
f 123/153/31 124/154/31 128/159/33 
f 124/154/6 126/160/6 128/159/6 
f 124/154/6 122/155/6 126/160/6 
f 126/157/34 4/161/1 1/162/1 
f 126/157/34 125/156/34 4/161/1 
f 125/156/3 6/163/3 4/161/3 
f 125/156/3 127/158/3 6/163/3 
f 127/158/33 8/164/4 6/163/4 
f 127/158/33 128/159/33 8/164/4 
f 128/159/6 1/165/6 8/164/6 
f 128/159/6 126/160/6 1/165/6 
# 256 faces

